<?xml version="1.0" encoding="utf-8"?>
<!-- Generator: Adobe Illustrator 23.0.5, SVG Export Plug-In . SVG Version: 6.00 Build 0)  -->
<svg version="1.1" id="Capa_1" xmlns="http://www.w3.org/2000/svg" xmlns:xlink="http://www.w3.org/1999/xlink" x="0px" y="0px"
	 viewBox="0 0 400 150" style="enable-background:new 0 0 400 150;" xml:space="preserve">
<style type="text/css">
	.st0{stroke:#FFFFFF;stroke-width:0.25;}
	.st1{fill:#FFFFFF;stroke:#FFFFFF;stroke-width:0.25;}
	.st2{fill:#CB3200;stroke:#FFFFFF;stroke-width:0.25;}
	.st3{fill:#750B00;stroke:#FFFFFF;stroke-width:0.25;}
	.st4{fill:#BA2101;stroke:#FFFFFF;stroke-width:0.25;}
	.st5{fill:#BC2401;stroke:#FFFFFF;stroke-width:0.25;}
	.st6{fill:#EB3901;stroke:#FFFFFF;stroke-width:0.25;}
	.st7{fill:#AA1101;stroke:#FFFFFF;stroke-width:0.25;}
	.st8{fill:#A50B00;stroke:#FFFFFF;stroke-width:0.25;}
	.st9{fill:#B41A00;stroke:#FFFFFF;stroke-width:0.25;}
	.st10{fill:#A21E16;stroke:#FFFFFF;stroke-width:0.25;}
	.st11{fill:#B01400;stroke:#FFFFFF;stroke-width:0.25;}
	.st12{fill:#C52C00;stroke:#FFFFFF;stroke-width:0.25;}
	.st13{fill:#BA2302;stroke:#FFFFFF;stroke-width:0.25;}
	.st14{fill:#D13300;stroke:#FFFFFF;stroke-width:0.25;}
	.st15{fill:#E93700;stroke:#FFFFFF;stroke-width:0.25;}
	.st16{fill:#B21700;stroke:#FFFFFF;stroke-width:0.25;}
	.st17{fill:#B92000;stroke:#FFFFFF;stroke-width:0.25;}
	.st18{enable-background:new    ;}
	.st19{font-family:'SynthaNova-Regular';}
	.st20{font-size:29px;}
</style>
<g id="Capa_5">
	<polygon class="st0" points="94.11,150 24.47,74.35 95.33,0 164.96,75.65 	"/>
</g>
<g id="Capa_4">
	<polygon class="st1" points="86.31,150 16.68,74.35 87.53,0 157.17,75.65 	"/>
</g>
<g id="Capa_3">
	<polyline class="st2" points="73.66,10.37 82.79,0.89 150.93,75.75 80.25,149.1 71.1,138.69 132.48,74.93 73.66,10.37 	"/>
</g>
<g id="Capa_1_1_">
	<polygon class="st3" points="1,72.29 16.68,88.98 18.37,55.03 	"/>
	<polygon class="st4" points="62.15,86.34 34.66,108.31 47.68,123.2 	"/>
	<polygon class="st5" points="62.15,140.31 68.79,133.08 47.68,123.2 	"/>
	<polygon class="st6" points="84.57,116.1 68.79,133.08 47.68,123.2 	"/>
	<polygon class="st6" points="101.18,98.3 84.37,116.1 61.94,86.33 	"/>
	<polygon class="st7" points="16.68,89.26 62.15,86.34 34.66,108.31 	"/>
	<polygon class="st3" points="62.15,59.77 62.15,86.34 16.68,89.26 	"/>
	<polygon class="st8" points="18.37,54.76 62.15,59.77 16.68,89.26 	"/>
	<polygon class="st8" points="34.13,39.32 18.37,54.76 62.15,59.77 	"/>
	<polygon class="st9" points="49.64,23.46 34.13,39.32 62.15,59.77 	"/>
	<polygon class="st10" points="63.01,9.27 49.64,23.46 67.88,14.28 	"/>
	<polygon class="st11" points="82.47,29.86 62.15,59.77 49.64,23.46 	"/>
	<polygon class="st4" points="100.97,49.54 62.15,86.34 100.97,98.3 	"/>
	<polygon class="st12" points="123.9,75.12 116.22,83 116.22,67 	"/>
	<g id="XMLID_2_">
		<g>
			<polygon class="st7" points="100.97,98.3 116.22,82.99 100.97,49.54 			"/>
		</g>
	</g>
	<polygon class="st13" points="67.88,14.28 82.47,29.86 49.64,23.46 	"/>
	<polygon class="st14" points="62.15,59.77 100.97,49.54 82.47,29.86 	"/>
	<polyline class="st15" points="116.22,82.99 116.22,67 100.97,49.54 116.22,82.99 	"/>
	<polygon class="st16" points="62.15,86.34 47.68,123.2 84.57,116.1 	"/>
	<polygon class="st17" points="62.15,59.77 62.15,86.34 100.97,49.54 	"/>
</g>
<g id="Capa_6">
	<text transform="matrix(1 0 0 1 204.019 74.0532)" class="st18"><tspan x="0" y="0" class="st19 st20">Terzett </tspan><tspan x="-40.51" y="34.8" class="st19 st20">Technologix</tspan></text>
	<text transform="matrix(1 0 0 1 458.8174 54.0957)" style="font-family:'AvenirNext-Italic'; font-size:26.6221px;"> ®</text>
</g>
</svg>
