<?xml version="1.0" encoding="utf-8"?>
<!-- Generator: Adobe Illustrator 23.0.5, SVG Export Plug-In . SVG Version: 6.00 Build 0)  -->
<svg version="1.1" id="Capa_1" xmlns="http://www.w3.org/2000/svg" xmlns:xlink="http://www.w3.org/1999/xlink" x="0px" y="0px"
	 viewBox="0 0 400 200" style="enable-background:new 0 0 400 200;" xml:space="preserve">
<style type="text/css">
	.st0{enable-background:new    ;}
	.st1{font-family:'SynthaNova-Regular';}
	.st2{font-size:33.4471px;}
	.st3{stroke:#FFFFFF;stroke-width:0.25;}
	.st4{fill:#FFFFFF;stroke:#FFFFFF;stroke-width:0.25;}
	.st5{fill:#CB3200;stroke:#FFFFFF;stroke-width:0.25;}
	.st6{fill:#750B00;stroke:#FFFFFF;stroke-width:0.25;}
	.st7{fill:#BA2101;stroke:#FFFFFF;stroke-width:0.25;}
	.st8{fill:#BC2401;stroke:#FFFFFF;stroke-width:0.25;}
	.st9{fill:#EB3901;stroke:#FFFFFF;stroke-width:0.25;}
	.st10{fill:#AA1101;stroke:#FFFFFF;stroke-width:0.25;}
	.st11{fill:#A50B00;stroke:#FFFFFF;stroke-width:0.25;}
	.st12{fill:#B41A00;stroke:#FFFFFF;stroke-width:0.25;}
	.st13{fill:#A21E16;stroke:#FFFFFF;stroke-width:0.25;}
	.st14{fill:#B01400;stroke:#FFFFFF;stroke-width:0.25;}
	.st15{fill:#C52C00;stroke:#FFFFFF;stroke-width:0.25;}
	.st16{fill:#BA2302;stroke:#FFFFFF;stroke-width:0.25;}
	.st17{fill:#D13300;stroke:#FFFFFF;stroke-width:0.25;}
	.st18{fill:#E93700;stroke:#FFFFFF;stroke-width:0.25;}
	.st19{fill:#B21700;stroke:#FFFFFF;stroke-width:0.25;}
	.st20{fill:#B92000;stroke:#FFFFFF;stroke-width:0.25;}
</style>
<g id="Capa_6">
	<text transform="matrix(1 0 0 1 177.9688 100.709)" class="st0"><tspan x="0" y="0" class="st1 st2">Terzett</tspan><tspan x="-52.85" y="40.14" class="st1 st2">Technologix</tspan></text>
	<text transform="matrix(1 0 0 1 704.1104 114.0869)" style="font-family:'AvenirNext-Italic'; font-size:40.1365px;"> </text>
</g>
<g id="Capa_5">
	
		<rect x="41.44" y="49.84" transform="matrix(0.7132 -0.7009 0.7009 0.7132 -40.8881 85.8775)" class="st3" width="86.14" height="86.14"/>
</g>
<g id="Capa_4">
	
		<rect x="34.68" y="49.84" transform="matrix(0.7132 -0.7009 0.7009 0.7132 -42.8259 81.1413)" class="st4" width="86.14" height="86.14"/>
</g>
<g id="Capa_3">
	<polyline class="st5" points="66.25,40.42 74.16,32.72 133.25,93.51 71.97,153.09 64.03,144.63 117.25,92.85 66.25,40.42 	"/>
</g>
<g id="Capa_2">
</g>
<g id="Capa_1_1_">
	<polygon class="st6" points="3.25,90.7 16.84,104.26 18.31,76.69 	"/>
	<polygon class="st7" points="56.27,102.11 32.43,119.96 43.73,132.05 	"/>
	<polygon class="st8" points="56.27,145.95 62.03,140.07 43.73,132.05 	"/>
	<polygon class="st9" points="75.71,126.29 62.03,140.07 43.73,132.05 	"/>
	<polygon class="st9" points="90.11,111.83 75.53,126.29 56.09,102.11 	"/>
	<polygon class="st10" points="16.84,104.49 56.27,102.11 32.43,119.96 	"/>
	<polygon class="st6" points="56.27,80.54 56.27,102.11 16.84,104.49 	"/>
	<polygon class="st11" points="18.31,76.47 56.27,80.54 16.84,104.49 	"/>
	<polygon class="st11" points="31.98,63.93 18.31,76.47 56.27,80.54 	"/>
	<polygon class="st12" points="45.42,51.05 31.98,63.93 56.27,80.54 	"/>
	<polygon class="st13" points="57.01,39.53 45.42,51.05 61.24,43.59 	"/>
	<polygon class="st14" points="73.89,56.25 56.27,80.54 45.42,51.05 	"/>
	<polygon class="st7" points="89.93,72.23 56.27,102.11 89.93,111.83 	"/>
	<polygon class="st15" points="109.82,93.01 103.15,99.4 103.15,86.41 	"/>
	<g id="XMLID_2_">
		<g>
			<polygon class="st10" points="89.93,111.83 103.15,99.4 89.93,72.23 			"/>
		</g>
	</g>
	<polygon class="st16" points="61.24,43.59 73.89,56.25 45.42,51.05 	"/>
	<polygon class="st17" points="56.27,80.54 89.93,72.23 73.89,56.25 	"/>
	<polyline class="st18" points="103.15,99.4 103.15,86.41 89.93,72.23 103.15,99.4 	"/>
	<polygon class="st19" points="56.27,102.11 43.73,132.05 75.71,126.29 	"/>
	<polygon class="st20" points="56.27,80.54 56.27,102.11 89.93,72.23 	"/>
</g>
</svg>
